<?xml version="1.0" standalone="no"?><!DOCTYPE svg PUBLIC "-//W3C//DTD SVG 1.1//EN" "http://www.w3.org/Graphics/SVG/1.1/DTD/svg11.dtd"><svg t="1609483924764" class="icon" viewBox="0 0 1024 1024" version="1.1" xmlns="http://www.w3.org/2000/svg" p-id="3747" xmlns:xlink="http://www.w3.org/1999/xlink" width="200" height="200"><defs><style type="text/css"></style></defs><path d="M1017.258891 619.396953l-102.396586-102.396586a17.066098 17.066098 0 0 0-24.131463 0l-90.313789 90.313789 126.528049 126.528049 90.313789-90.313789a17.066098 17.066098 0 0 0 0-24.131463z m-560.621312 234.11273l-218.377788 31.640545-7.679744-56.181594c0.034132-0.511983 0.30719-0.955701 0.30719-1.501816a16.48585 16.48585 0 0 0-1.433552-6.724043L140.334522 167.486684 858.441785 36.931036l78.742976 426.993767a17.066098 17.066098 0 1 0 33.58608-6.21206l-81.814873-443.718543a17.066098 17.066098 0 0 0-19.864938-13.68701l-283.911603 51.607879c-0.546115-0.102397-0.955701-0.580247-1.535948-0.614379l-529.049032-51.198293a17.202627 17.202627 0 0 0-18.704443 16.246925l-34.132196 785.040498a17.066098 17.066098 0 0 0 14.881637 17.646345l181.344356 23.653612 8.737842 64.134396a17.10023 17.10023 0 0 0 19.318822 14.608579l235.409753-34.132195a17.10023 17.10023 0 0 0-4.812639-33.790874z m58.60498 38.944835a17.066098 17.066098 0 0 0-4.983301 12.082797v102.396587a17.066098 17.066098 0 0 0 17.066098 17.066098h102.396587c4.539582 0 8.874371-1.809006 12.082797-4.983301l260.974767-260.974767-126.528049-126.528049-261.008899 260.940635z" p-id="3748"></path></svg>